<?xml version="1.0" encoding="UTF-8" standalone="no"?>
<!-- Created with Inkscape (http://www.inkscape.org/) -->

<svg
   width="190.24501mm"
   height="102.81679mm"
   viewBox="0 0 190.24501 102.81678"
   version="1.1"
   id="svg5"
   inkscape:version="1.1 (c68e22c387, 2021-05-23)"
   sodipodi:docname="leitf_verlauf.svg"
   xmlns:inkscape="http://www.inkscape.org/namespaces/inkscape"
   xmlns:sodipodi="http://sodipodi.sourceforge.net/DTD/sodipodi-0.dtd"
   xmlns="http://www.w3.org/2000/svg"
   xmlns:svg="http://www.w3.org/2000/svg">
  <sodipodi:namedview
     id="namedview7"
     pagecolor="#505050"
     bordercolor="#eeeeee"
     borderopacity="1"
     inkscape:pageshadow="0"
     inkscape:pageopacity="0"
     inkscape:pagecheckerboard="0"
     inkscape:document-units="mm"
     showgrid="false"
     inkscape:zoom="0.9814281"
     inkscape:cx="514.04683"
     inkscape:cy="135.00734"
     inkscape:window-width="2560"
     inkscape:window-height="1361"
     inkscape:window-x="2551"
     inkscape:window-y="-9"
     inkscape:window-maximized="1"
     inkscape:current-layer="layer1"
     inkscape:snap-page="true"
     fit-margin-top="0"
     fit-margin-left="0"
     fit-margin-right="0"
     fit-margin-bottom="0" />
  <defs
     id="defs2" />
  <g
     inkscape:label="Ebene 1"
     inkscape:groupmode="layer"
     id="layer1"
     transform="translate(-9.6152821,-44.730068)">
    <g
       aria-label="G"
       id="text11924"
       style="font-size:6.35px;line-height:1.25;font-family:Bahnschrift;-inkscape-font-specification:Bahnschrift;letter-spacing:0px;word-spacing:0px;stroke-width:0.264583">
      <path
         d="m 12.790282,52.282767 v 0.787549 q 0,0.502294 -0.195337,0.886767 -0.195337,0.381372 -0.555005,0.592212 -0.356567,0.207739 -0.827856,0.207739 -0.47749,0 -0.840259,-0.195337 Q 10.012157,54.36326 9.8137195,54.003592 9.6152821,53.643924 9.6152821,53.169534 v -1.330151 q 0,-0.502295 0.1953369,-0.883667 0.195337,-0.381372 0.551904,-0.589111 0.359668,-0.21084 0.830957,-0.21084 0.387574,0 0.713135,0.167431 0.328662,0.164332 0.548804,0.468189 0.220141,0.303857 0.297656,0.703833 v 0 h -0.68523 v 0 q -0.05581,-0.226343 -0.189135,-0.387573 -0.133325,-0.164331 -0.313159,-0.248047 -0.179834,-0.08682 -0.372071,-0.08682 -0.279052,0 -0.489892,0.133326 -0.21084,0.133325 -0.325562,0.375171 -0.114721,0.238745 -0.114721,0.558105 v 1.330151 q 0,0.291455 0.117822,0.511597 0.117822,0.217041 0.331762,0.337964 0.217041,0.120923 0.499195,0.120923 0.279053,0 0.489892,-0.124024 0.21084,-0.127124 0.325562,-0.365869 0.114722,-0.238745 0.114722,-0.567407 v -0.195337 h -0.914673 v -0.604614 z"
         id="path38442" />
    </g>
    <path
       style="fill:#000000;stroke-width:0.264583"
       d="m 193.49886,137.89052 v -0.66146 H 105.65719 17.815524 V 94.119555 51.010049 l -0.727604,-0.08372 c -0.400182,-0.04605 -0.70083,-0.223573 -0.668107,-0.394505 0.03272,-0.170932 0.315548,-1.242494 0.628498,-2.38125 0.31295,-1.138756 0.648111,-2.426998 0.744802,-2.862761 0.118241,-0.532886 0.243945,-0.682037 0.383927,-0.455541 0.337354,0.54585 1.702038,5.842963 1.54561,5.999391 -0.07878,0.07878 -0.421049,0.143237 -0.760598,0.143237 h -0.617361 v 17.314592 c 0,11.117381 0.09356,17.372419 0.261406,17.476151 0.23014,0.142235 1.350859,0.468308 4.104219,1.194128 0.436562,0.115081 5.437187,1.483987 11.1125,3.04201 5.675312,1.558023 10.675937,2.926548 11.1125,3.041168 0.436562,0.11462 1.448594,0.389345 2.248958,0.6105 1.453221,0.401547 17.883135,4.899593 20.6375,5.649965 0.800365,0.218043 2.288646,0.618334 3.307292,0.889536 1.018646,0.2712 2.566458,0.69135 3.439583,0.93367 0.873125,0.24231 1.944688,0.53436 2.38125,0.64898 0.436563,0.11462 5.437188,1.48314 11.1125,3.04116 5.675313,1.55803 10.675938,2.92711 11.1125,3.04242 1.430001,0.37768 17.433011,4.80729 18.653121,5.16315 4.3086,1.25665 11.06447,3.04007 11.5163,3.04007 0.2967,0 2.02386,-0.9061 3.83814,-2.01355 1.81428,-1.10746 10.38291,-6.21038 19.0414,-11.33983 8.65849,-5.129459 18.06442,-10.709693 20.90208,-12.400529 2.83766,-1.690835 5.20154,-2.950313 5.25308,-2.798841 0.0515,0.151474 0.0515,0.31125 0,0.35506 -0.0515,0.04381 -9.32105,5.527307 -20.59891,12.18555 -11.27787,6.65824 -20.6838,12.2488 -20.90209,12.42347 -0.21828,0.17468 -1.95484,1.23421 -3.85903,2.35452 l -3.46215,2.03692 -6.32743,-1.7499 c -3.48008,-0.96245 -6.86321,-1.90555 -7.51805,-2.09579 -0.65485,-0.19024 -4.70297,-1.31332 -8.99584,-2.49575 -4.29286,-1.18242 -8.698173,-2.39844 -9.789579,-2.70225 -1.091406,-0.30381 -2.341563,-0.645 -2.778125,-0.7582 -0.711557,-0.1845 -19.27842,-5.26484 -22.886459,-6.26228 -0.800364,-0.22126 -2.080286,-0.5689 -2.84427,-0.77253 C 67.653102,99.824839 66.402946,99.491623 65.638962,99.287991 64.874977,99.08436 63.595055,98.736735 62.794691,98.515487 58.623442,97.36242 43.503576,93.222403 42.818649,93.045788 42.382087,92.933216 41.13193,92.593218 40.040524,92.290241 27.596774,88.835815 18.704322,86.508702 18.541763,86.66411 c -0.109891,0.105061 -0.169422,11.376326 -0.132291,25.04726 l 0.06751,24.85623 87.510938,0.0665 87.51094,0.0666 v -0.61776 c 0,-0.33977 0.0633,-0.68104 0.14063,-0.75839 0.0773,-0.0774 1.41681,0.19692 2.97657,0.60949 1.55976,0.41257 2.94903,0.75367 3.08728,0.758 1.16841,0.0366 -4.52826,1.85995 -5.81091,1.85995 -0.24342,0 -0.39357,-0.25236 -0.39357,-0.66146 z"
       id="path15246" />
    <g
       aria-label="V"
       id="text14656"
       style="font-size:6.35px;line-height:1.25;font-family:Bahnschrift;-inkscape-font-specification:Bahnschrift;letter-spacing:0px;word-spacing:0px;stroke-width:0.264583">
      <path
         d="m 189.38762,143.03861 h 0.68833 l 1.0821,3.53467 1.08211,-3.53467 h 0.68833 l -1.46968,4.50825 h -0.60151 z"
         id="path38445" />
    </g>
    <text
       xml:space="preserve"
       style="font-size:4.93889px;line-height:1.25;font-family:Bahnschrift;-inkscape-font-specification:Bahnschrift;letter-spacing:0px;word-spacing:0px;stroke-width:0.264583"
       x="146.02182"
       y="75.298462"
       id="text16750"><tspan
         sodipodi:role="line"
         id="tspan16748"
         style="font-size:4.93889px;stroke-width:0.264583"
         x="146.02182"
         y="75.298462">$n(Ag^+)\uparrow$</tspan><tspan
         sodipodi:role="line"
         style="font-size:4.93889px;stroke-width:0.264583"
         x="146.02182"
         y="81.472076"
         id="tspan22654">$n(NO_3^-)\uparrow$</tspan></text>
    <text
       xml:space="preserve"
       style="font-size:4.93889px;line-height:1.25;font-family:Bahnschrift;-inkscape-font-specification:Bahnschrift;letter-spacing:0px;word-spacing:0px;stroke-width:0.264583"
       x="29.166235"
       y="78.92041"
       id="text18074"><tspan
         sodipodi:role="line"
         id="tspan18072"
         style="font-size:4.93889px;stroke-width:0.264583"
         x="29.166235"
         y="78.92041">$n(Cl^-)\downarrow$</tspan><tspan
         sodipodi:role="line"
         style="font-size:4.93889px;stroke-width:0.264583"
         x="29.166235"
         y="85.094025"
         id="tspan21364">$n(NO_3^-)\uparrow$</tspan></text>
    <text
       xml:space="preserve"
       style="font-size:4.93889px;line-height:1.25;font-family:Bahnschrift;-inkscape-font-specification:Bahnschrift;letter-spacing:0px;word-spacing:0px;stroke-width:0.264583"
       x="116.09307"
       y="126.19641"
       id="text26346"><tspan
         sodipodi:role="line"
         id="tspan26344"
         style="font-size:4.93889px;stroke-width:0.264583"
         x="116.09307"
         y="126.19641">$n(Ag^+) = 0$</tspan><tspan
         sodipodi:role="line"
         style="font-size:4.93889px;stroke-width:0.264583"
         x="116.09307"
         y="132.37003"
         id="tspan26348">$n(Cl^-) = 0$</tspan></text>
  </g>
</svg>
